<svg xmlns="http://www.w3.org/2000/svg" viewBox="0 0 64 64" width="64" height="64">
  <!-- Background circle with gradient -->
  <defs>
    <linearGradient id="bgGradient" x1="0%" y1="0%" x2="100%" y2="100%">
      <stop offset="0%" style="stop-color:#3498db;stop-opacity:1" />
      <stop offset="100%" style="stop-color:#2c3e50;stop-opacity:1" />
    </linearGradient>
    <linearGradient id="vaultGradient" x1="0%" y1="0%" x2="100%" y2="100%">
      <stop offset="0%" style="stop-color:#ecf0f1;stop-opacity:1" />
      <stop offset="100%" style="stop-color:#bdc3c7;stop-opacity:1" />
    </linearGradient>
  </defs>
  
  <!-- Background circle -->
  <circle cx="32" cy="32" r="30" fill="url(#bgGradient)" stroke="#2c3e50" stroke-width="2"/>
  
  <!-- Vault/Safe body -->
  <rect x="16" y="20" width="32" height="28" rx="2" fill="url(#vaultGradient)" stroke="#34495e" stroke-width="1.5"/>
  
  <!-- Vault door -->
  <rect x="18" y="22" width="28" height="24" rx="1" fill="#ecf0f1" stroke="#7f8c8d" stroke-width="1"/>
  
  <!-- Circular lock mechanism -->
  <circle cx="32" cy="34" r="8" fill="#34495e" stroke="#2c3e50" stroke-width="1"/>
  <circle cx="32" cy="34" r="6" fill="#7f8c8d"/>
  <circle cx="32" cy="34" r="3" fill="#2c3e50"/>
  
  <!-- Lock handle -->
  <rect x="31" y="28" width="2" height="4" fill="#2c3e50"/>
  
  <!-- Knowledge symbols around the lock -->
  <!-- Brain/mind symbol (top) -->
  <path d="M28 16 Q32 12 36 16 Q34 18 32 18 Q30 18 28 16" fill="#e74c3c" opacity="0.8"/>
  
  <!-- Task checkmark (right) -->
  <path d="M50 30 L52 32 L56 28" stroke="#27ae60" stroke-width="2" fill="none" opacity="0.8"/>
  
  <!-- Note/document (bottom) -->
  <rect x="29" y="50" width="6" height="8" fill="#f39c12" opacity="0.8"/>
  <line x1="30" y1="52" x2="34" y2="52" stroke="#fff" stroke-width="0.5"/>
  <line x1="30" y1="54" x2="34" y2="54" stroke="#fff" stroke-width="0.5"/>
  <line x1="30" y1="56" x2="33" y2="56" stroke="#fff" stroke-width="0.5"/>
  
  <!-- Review/people (left) -->
  <circle cx="10" cy="32" r="3" fill="#9b59b6" opacity="0.8"/>
  <circle cx="8" cy="36" r="2" fill="#9b59b6" opacity="0.6"/>
  <circle cx="12" cy="36" r="2" fill="#9b59b6" opacity="0.6"/>
  
  <!-- Highlight/shine effect -->
  <ellipse cx="26" cy="26" rx="4" ry="2" fill="#ffffff" opacity="0.3"/>
</svg>
